<svg width="198" height="150" viewBox="0 0 198 150" fill="none" xmlns="http://www.w3.org/2000/svg">
<path d="M105.843 28.0267C102.109 16.3265 93.6184 5.59554 81.8759 1.64024C70.1327 -2.31506 52.9377 3.71015 44.1094 12.3612C27.9608 28.1858 27.1387 86.1789 38.2335 103.358C40.4402 103.243 48.055 103.158 50.2885 103.076L53.4481 92.7217V102.974C70.8813 102.444 90.2853 116.543 107.19 103.119C108.818 90.9559 109.577 39.7269 105.843 28.0267Z" fill="#2B3967"/>
<path d="M79.9333 64.9334C93.2986 64.9334 104.133 53.7703 104.133 40C104.133 26.2297 93.2986 15.0667 79.9333 15.0667C66.568 15.0667 55.7333 26.2297 55.7333 40C55.7333 53.7703 66.568 64.9334 79.9333 64.9334Z" fill="#FFB27E"/>
<path d="M97.8158 7.61579C88.2253 2.05675 75.4437 1.89651 65.7016 7.21327C55.9603 12.53 49.66 23.1049 49.8719 33.7827C63.9058 34.3963 78.4628 46.9278 93.5968 34.5837L97.1297 26.3629L99.2125 34.5898C103.767 34.5894 108.331 34.5837 112.903 34.5727C113.412 23.904 107.407 13.1748 97.8158 7.61579Z" fill="#2B3967"/>
<path d="M193.509 89.8001C192.938 88.432 192.074 87.2058 190.978 86.2078C189.882 85.2098 188.58 84.4642 187.165 84.0237C185.749 83.5831 184.255 83.4583 182.786 83.658C181.317 83.8577 179.909 84.377 178.663 85.1794L105.193 72.6979L104.106 89.0484L175.937 99.861C177.424 101.866 179.595 103.255 182.038 103.767C184.48 104.278 187.026 103.876 189.192 102.635C191.358 101.395 192.994 99.4037 193.79 97.0381C194.585 94.6725 194.486 92.0971 193.509 89.8001V89.8001Z" fill="#FFB27E"/>
<path d="M109.819 67.3456L98.502 67.2264L92.4526 67.165L88.5073 67.1209C86.9401 66.8679 85.3379 66.9369 83.7983 67.3236C81.166 67.9806 78.8406 69.5248 77.214 71.6961C75.5874 73.8674 74.7589 76.5331 74.8682 79.2439C74.9775 81.9547 76.0178 84.545 77.814 86.5783C79.6101 88.6116 82.0522 89.9637 84.7288 90.4066L105.137 96.8343C105.718 97.015 106.331 97.0688 106.935 96.9919C107.539 96.9151 108.119 96.7095 108.636 96.389C109.695 95.7367 116.948 95.5808 117.146 94.3565L120.235 94.3223L124.477 94.8136L141.319 94.6065L142.685 85.8487L148.913 77.1238C149.102 75.9115 113.825 69.7876 113.024 68.8578C112.631 68.3888 112.141 68.0106 111.587 67.7495C111.034 67.4884 110.431 67.3506 109.819 67.3456V67.3456Z" fill="#FA9746"/>
<path d="M138.796 148.533H41.6037C37.5715 148.533 33.7043 146.934 30.8531 144.086C28.0018 141.238 26.4 137.376 26.4 133.349V97.6134C26.4 93.5863 28.0018 89.7242 30.8531 86.8766C33.7043 84.029 37.5715 82.4292 41.6037 82.4292L54.037 64.9333H97.4362L138.796 82.4292C140.793 82.4292 142.77 82.822 144.614 83.5851C146.459 84.3481 148.135 85.4666 149.547 86.8766C150.959 88.2866 152.079 89.9604 152.843 91.8027C153.607 93.6449 154 95.6194 154 97.6134V133.349C154 135.343 153.607 137.318 152.843 139.16C152.079 141.002 150.959 142.676 149.547 144.086C148.135 145.496 146.459 146.614 144.614 147.378C142.77 148.141 140.793 148.533 138.796 148.533Z" fill="#FA9746"/>
<path d="M96.465 145.682C95.6532 146.897 94.5982 147.911 93.374 148.65C92.1499 149.39 90.7864 149.838 89.3797 149.964C87.9731 150.089 86.5573 149.889 85.2323 149.376C83.9073 148.864 82.7051 148.052 81.7106 146.998L21.6367 149.041L13.9556 149.303C6.05485 149.571 1.50388 139.955 6.46969 133.485L11.8053 126.533L30.889 129.682L37.7895 130L82.1887 132.047C83.9826 130.407 86.2862 129.516 88.6629 129.543C91.0396 129.57 93.3243 130.513 95.084 132.194C96.8438 133.875 97.9563 136.176 98.2108 138.662C98.4653 141.148 97.8441 143.646 96.4649 145.682L96.465 145.682Z" fill="#FFB27E"/>
<path d="M43.055 69.7669C43.055 69.7669 31.5408 66.8174 26.0833 76.3056C21.7141 83.9016 6.85155 112.63 3.76626 124.421C-11.2877 161.049 23.7133 146.463 22.734 149.918L34.4436 130.513C39.5315 127.944 29.7378 131.259 28.4477 129.417L37.4238 119.568L47.5996 114.432L51.3333 74.2155L43.055 69.7669Z" fill="#FA9746"/>
<path d="M124.173 56.0707C128.423 48.1466 135.987 41.5214 145.009 40.1716C147.384 39.8569 149.798 39.9758 152.127 40.5222C165.412 43.4292 173.722 56.3411 171.126 69.3726C170.611 71.9575 170.009 74.6319 169.58 77.6014C169.43 78.6162 169.068 79.5901 168.515 80.4623C167.962 81.3344 167.231 82.0861 166.367 82.6704C165.503 83.2546 164.525 83.659 163.494 83.858C162.462 84.0571 161.4 84.0467 160.373 83.8274L160.323 83.817L158.05 83.3431C151.294 81.948 143.563 83.5245 136.234 83.4384C125.309 83.31 117.632 72.9124 121.115 62.8157C121.95 60.4922 122.972 58.2369 124.173 56.0707V56.0707Z" fill="#2B3967"/>
<path d="M140.067 85.4667C150.192 85.4667 158.4 77.5869 158.4 67.8667C158.4 58.1465 150.192 50.2667 140.067 50.2667C129.941 50.2667 121.733 58.1465 121.733 67.8667C121.733 77.5869 129.941 85.4667 140.067 85.4667Z" fill="#FFB27E"/>
<path d="M132.189 41.5255C140.021 38.4993 149.452 40.0612 155.883 45.4497C162.313 50.8382 165.48 59.8315 163.838 68.0455C153.423 66.6685 140.965 74.4215 131.543 62.8977L130.086 56.0863L127.408 62.1618C124.056 61.5608 120.697 60.9546 117.333 60.3432C118.443 52.0412 124.356 44.5516 132.189 41.5255Z" fill="#2B3967"/>
<path d="M175.244 148.533H112.222C110.775 148.533 109.342 148.237 108.004 147.661C106.667 147.086 105.452 146.242 104.428 145.178C103.405 144.115 102.593 142.852 102.039 141.462C101.485 140.072 101.2 138.583 101.2 137.079V110.12C101.2 107.082 102.361 104.169 104.428 102.02C106.495 99.8722 109.299 98.6653 112.222 98.6653L128.817 85.4667H160.281L175.244 98.6653C178.168 98.6653 180.971 99.8722 183.038 102.02C185.105 104.169 186.267 107.082 186.267 110.12V137.079C186.267 140.117 185.105 143.03 183.038 145.178C180.971 147.327 178.168 148.533 175.244 148.533Z" fill="#FFB93F"/>
<path d="M109.885 145.295C110.493 146.206 111.285 146.966 112.203 147.521C113.121 148.076 114.144 148.412 115.199 148.506C116.254 148.6 117.315 148.45 118.309 148.065C119.303 147.681 120.204 147.072 120.95 146.282L166.006 147.814L171.767 148.01C177.692 148.212 181.105 141 177.381 136.147L173.379 130.933L159.067 133.295L153.891 133.534L120.592 135.069C119.246 133.838 117.519 133.17 115.736 133.191C113.954 133.211 112.24 133.918 110.92 135.179C109.601 136.439 108.766 138.166 108.575 140.03C108.384 141.895 108.85 143.768 109.885 145.295L109.885 145.295Z" fill="#FFB27E"/>
<path d="M149.883 90.182C149.883 90.182 158.436 88.0369 162.491 94.9374C165.736 100.462 176.777 121.355 179.069 129.931C190.252 156.569 164.251 145.961 164.979 148.474L156.28 134.361C152.5 132.493 159.776 134.904 160.734 133.564L154.066 126.401L146.507 122.665L143.733 93.4173L149.883 90.182Z" fill="#FFB93F"/>
</svg>
