<svg width="31" height="31" viewBox="0 0 31 31" fill="none" xmlns="http://www.w3.org/2000/svg">
<g clip-path="url(#clip0_218_73)">
<path d="M15.5 29.0625C11.903 29.0625 8.45333 27.6336 5.90986 25.0901C3.3664 22.5467 1.9375 19.097 1.9375 15.5C1.9375 11.903 3.3664 8.45333 5.90986 5.90986C8.45333 3.3664 11.903 1.9375 15.5 1.9375C19.097 1.9375 22.5467 3.3664 25.0901 5.90986C27.6336 8.45333 29.0625 11.903 29.0625 15.5C29.0625 19.097 27.6336 22.5467 25.0901 25.0901C22.5467 27.6336 19.097 29.0625 15.5 29.0625ZM15.5 31C19.6109 31 23.5533 29.367 26.4602 26.4602C29.367 23.5533 31 19.6109 31 15.5C31 11.3891 29.367 7.44666 26.4602 4.53984C23.5533 1.63303 19.6109 0 15.5 0C11.3891 0 7.44666 1.63303 4.53984 4.53984C1.63303 7.44666 0 11.3891 0 15.5C0 19.6109 1.63303 23.5533 4.53984 26.4602C7.44666 29.367 11.3891 31 15.5 31Z" fill="#5C5387"/>
<path d="M15.5 7.75C15.7569 7.75 16.0033 7.85206 16.185 8.03374C16.3667 8.21542 16.4688 8.46182 16.4688 8.71875V14.5312H22.2812C22.5382 14.5312 22.7846 14.6333 22.9663 14.815C23.1479 14.9967 23.25 15.2431 23.25 15.5C23.25 15.7569 23.1479 16.0033 22.9663 16.185C22.7846 16.3667 22.5382 16.4688 22.2812 16.4688H16.4688V22.2812C16.4688 22.5382 16.3667 22.7846 16.185 22.9663C16.0033 23.1479 15.7569 23.25 15.5 23.25C15.2431 23.25 14.9967 23.1479 14.815 22.9663C14.6333 22.7846 14.5312 22.5382 14.5312 22.2812V16.4688H8.71875C8.46182 16.4688 8.21542 16.3667 8.03374 16.185C7.85206 16.0033 7.75 15.7569 7.75 15.5C7.75 15.2431 7.85206 14.9967 8.03374 14.815C8.21542 14.6333 8.46182 14.5312 8.71875 14.5312H14.5312V8.71875C14.5312 8.46182 14.6333 8.21542 14.815 8.03374C14.9967 7.85206 15.2431 7.75 15.5 7.75Z" fill="#5C5387"/>
</g>
<defs>
<clipPath id="clip0_218_73">
<rect width="31" height="31" fill="white"/>
</clipPath>
</defs>
</svg>
