<svg width="80" height="80" viewBox="0 0 80 80" fill="none" xmlns="http://www.w3.org/2000/svg">
<g opacity="0.5">
<path d="M49.9996 16.0202L49.9996 63.9802L22.5947 40.0002L49.9996 16.0202ZM46.7046 12.2552L19.3047 36.2352C18.7676 36.7045 18.3372 37.2833 18.0423 37.9326C17.7474 38.582 17.5948 39.287 17.5948 40.0002C17.5948 40.7134 17.7474 41.4183 18.0423 42.0677C18.3372 42.7171 18.7676 43.2959 19.3047 43.7652L46.6996 67.7452C49.9446 70.5752 54.9996 68.2752 54.9996 63.9802L54.9996 16.0202C55.0005 15.0589 54.7242 14.1179 54.2039 13.3096C53.6837 12.5014 52.9415 11.8602 52.0662 11.4629C51.1909 11.0656 50.2196 10.9291 49.2688 11.0696C48.3179 11.2101 47.4276 11.6217 46.7046 12.2552V12.2552Z" fill="#5C5387"/>
</g>
</svg>
