<svg width="80" height="80" viewBox="0 0 80 80" fill="none" xmlns="http://www.w3.org/2000/svg">
<g opacity="0.5">
<path d="M30 63.9801V16.0201L57.405 40.0001L30 63.9801ZM33.295 67.7451L60.695 43.7651C61.232 43.2957 61.6624 42.717 61.9574 42.0676C62.2523 41.4182 62.4049 40.7133 62.4049 40.0001C62.4049 39.2868 62.2523 38.5819 61.9574 37.9325C61.6624 37.2831 61.232 36.7044 60.695 36.2351L33.3 12.2551C30.055 9.42505 25 11.7251 25 16.0201V63.9801C24.9992 64.9413 25.2754 65.8824 25.7957 66.6906C26.316 67.4989 27.0582 68.14 27.9335 68.5373C28.8087 68.9346 29.78 69.0711 30.7309 68.9306C31.6818 68.7901 32.572 68.3785 33.295 67.7451V67.7451Z" fill="#5C5387"/>
</g>
</svg>
