<svg width="51" height="145" viewBox="0 0 51 145" fill="none" xmlns="http://www.w3.org/2000/svg">
<path opacity="0.1" d="M27 25H20V32H27V25Z" fill="#6C63FF"/>
<path opacity="0.1" d="M27 42H20V48H27V42Z" fill="#6C63FF"/>
<path opacity="0.1" d="M27 58H20V65H27V58Z" fill="#6C63FF"/>
<path opacity="0.1" d="M27 75H20V82H27V75Z" fill="#6C63FF"/>
<path opacity="0.1" d="M27 91H20V99H27V91Z" fill="#6C63FF"/>
<path d="M50.3699 51.8574C50.3699 51.8574 49.4386 51.7278 49.4386 50.3775C49.4386 49.0272 48.7721 46.4986 48.7721 46.4986C48.7721 46.4986 48.1954 42.0989 47.3989 41.4014C46.6024 40.7038 45.5789 36.6082 45.5789 36.6082C45.5789 36.6082 45.404 34.3859 45.0471 33.9076C44.6902 33.4292 44.2081 32.258 43.4967 30.5872C42.7852 28.9164 39.826 27.7711 39.826 27.7711C39.826 27.7711 34.4631 24.6699 32.9433 23.6589C32.8043 23.5751 32.6744 23.4772 32.5557 23.3667C32.291 23.0226 31.1376 23.0156 31.1376 23.0156C31.017 22.2544 30.9012 21.3825 30.8634 20.593C30.8634 20.5082 30.8634 20.4233 30.8634 20.3385C32.5581 19.3398 33.8345 17.765 34.4584 15.9035C34.4867 15.8139 34.5104 15.722 34.5364 15.6301C34.6401 15.5982 34.7358 15.5447 34.8173 15.4733C34.8988 15.4018 34.9642 15.3139 35.0091 15.2154C35.1438 14.9114 35.1485 14.5579 35.3187 14.2727C35.5173 13.9381 35.8954 13.759 36.1932 13.5092C36.9448 12.8706 37.1387 11.7984 37.1032 10.8251C37.0796 10.0333 36.9519 9.23679 37.0016 8.45205C37.0016 8.38607 37.0016 8.32009 37.0158 8.2541C37.0299 8.13863 37.0465 8.01845 37.0678 7.90534C37.1836 7.32091 37.4365 6.76948 37.5783 6.18977C37.7201 5.61006 37.7343 4.95729 37.4034 4.4577C36.9188 3.72481 35.9096 3.57871 35.0233 3.51508C34.0188 3.43024 33.1324 3.53865 32.4777 2.70678C32.1774 2.27231 31.8389 1.86537 31.4661 1.4908C31.3337 1.36826 30.048 0.583528 30.048 0.53404C28.7899 -0.0491465 27.3627 -0.158805 26.0299 0.225325C25.361 0.418562 24.7347 0.734344 24.0563 0.892233C22.6004 1.23629 20.9223 0.863956 19.6838 1.69582C18.9936 2.16713 18.58 2.91887 18.1923 3.64705C17.8772 4.24718 17.5573 4.8481 17.2327 5.44981C16.708 6.4372 16.1786 7.44109 15.9588 8.53453C15.9128 8.77337 15.8836 9.01511 15.8713 9.258C15.8713 9.34519 15.8713 9.43238 15.8713 9.51957C15.8713 9.55728 15.8713 9.59499 15.8713 9.63269C15.8713 9.71281 15.8713 9.79294 15.8855 9.86834C15.8997 9.94375 15.8855 9.96496 15.9021 10.0145C15.9186 10.0639 15.9233 10.1747 15.9375 10.2501C15.9517 10.3255 15.98 10.4598 16.0084 10.5612C16.0084 10.6059 16.0368 10.6484 16.0509 10.6931C16.0651 10.7379 16.103 10.851 16.1337 10.9288C16.1644 11.0066 16.1668 11.0113 16.1857 11.0513C16.2211 11.1338 16.2637 11.2139 16.3062 11.287C16.3251 11.3176 16.3393 11.3483 16.3582 11.3789C16.423 11.4892 16.4957 11.5947 16.5757 11.6947C17.0791 12.3239 17.826 12.7245 18.3767 13.3136C18.3767 13.3372 18.3767 13.3608 18.3767 13.3843C18.3767 13.448 18.3767 13.5116 18.3767 13.5776C18.4104 14.8916 18.7657 16.1775 19.4116 17.3234C20.0575 18.4693 20.9745 19.4404 22.0828 20.1523C22.0828 20.2419 22.0946 20.3338 22.0993 20.4257C22.1454 21.1244 22.1367 21.8257 22.0733 22.523C21.9768 22.4103 21.8563 22.3204 21.7206 22.2601C21.5848 22.1998 21.4372 22.1704 21.2886 22.1743C21.1871 22.1692 21.0853 22.178 20.9861 22.2002L20.9648 22.1837V22.2049C20.4448 22.3322 19.8043 22.8718 19.1921 24.4059C19.1921 24.4059 17.3296 26.4985 15.9115 26.4114C14.4934 26.3242 10.9031 28.5912 10.9031 28.5912C10.9031 28.5912 7.40032 30.8558 6.6487 33.1652C6.22853 34.4751 5.72404 35.7566 5.13838 37.0017L0.796519 45.8906L0 52.9603C0 52.9603 0.441986 56.0969 0.354534 56.5776C0.267083 57.0583 2.17211 61.3708 2.17211 61.3708C2.17211 61.3708 8.46628 72.3948 11.0378 72.9604L11.2222 72.8331C11.3327 72.8887 11.4493 72.9314 11.5696 72.9604L12.0991 72.5904C12.1319 73.0046 12.1176 73.4212 12.0565 73.8323C11.7044 74.9234 12.1913 82.026 12.8105 83.4187C13.4298 84.8115 13.21 103.075 13.21 103.075L13.1225 104.684C13.1225 104.684 13.1225 104.736 13.1438 104.826L13.1225 105.207L13.1863 105.24C13.2525 105.752 13.231 106.272 13.1225 106.777C12.9003 107.484 12.8105 109.48 12.8105 109.48C12.8105 109.48 11.0378 120.763 11.8793 123.03C12.7207 125.297 13.4321 127.781 13.4321 127.781C13.4321 127.781 14.3185 130.609 13.4747 131.08C12.6309 131.551 10.2413 132.388 10.7282 133.564C11.1773 134.653 12.8814 137.57 13.1343 137.997L13.113 138.232L12.7656 141.986C12.8219 142.482 12.9567 142.965 13.165 143.419C13.5456 144.239 14.283 145.085 15.6917 144.993C15.9281 144.977 16.1999 144.951 16.4669 144.915C19.0409 144.569 22.208 143.424 22.208 143.424C22.0438 143.32 21.8937 143.196 21.7613 143.054C21.6348 142.932 21.5346 142.785 21.4667 142.623C21.3988 142.461 21.3648 142.287 21.3666 142.111C21.4044 141.425 20.121 138.171 19.7996 137.367L19.7263 137.188C19.7263 137.188 22.6524 134.136 22.1655 131.436C22.1655 131.436 18.9274 129.551 19.9934 128.514C21.0593 127.477 22.9644 124.508 22.9644 124.508C22.9644 124.508 23.0518 113.396 22.9644 111.74C22.8732 110.588 22.928 109.428 23.1275 108.29C23.1629 108.12 23.2055 107.953 23.2504 107.785C24.7259 108.008 26.2158 108.12 27.708 108.122C28.2532 108.122 28.8047 108.111 29.3625 108.09C29.3625 108.247 29.3696 108.416 29.3838 108.599C29.5067 111.351 29.736 116.18 29.9227 117.973C30.1874 120.542 31.6505 127.472 31.6505 127.472C31.6505 127.472 28.8591 129.256 32.1374 133.66C32.1374 133.66 32.1374 135.253 31.9199 135.487C31.6876 136.243 31.5005 137.011 31.3597 137.789C31.2227 138.616 31.1659 139.458 31.3881 139.891C31.9199 140.933 35.1107 140.848 35.1107 140.848C35.1364 140.842 35.1625 140.838 35.1887 140.836C35.791 140.773 36.3999 140.83 36.9799 141.004C37.5598 141.178 38.0991 141.465 38.5662 141.849C39.7788 142.82 44.3783 142.396 46.8718 142.085C47.848 141.96 48.5003 141.849 48.5003 141.849C48.5317 141.739 48.5429 141.624 48.5334 141.51C48.5074 140.9 48.0276 139.561 44.7753 138.367C44.7753 138.367 41.7169 136.316 41.7594 134.53H41.6909H41.3387C41.5609 134.523 41.7169 134.523 41.7169 134.523C41.7169 134.523 40.5186 130.166 41.0078 129.81C41.4971 129.454 40.0317 124.625 40.0317 124.625C40.0317 124.625 39.1926 116.519 39.1453 115.953C39.1484 115.466 39.2233 114.982 39.3675 114.516L39.1453 110.069C39.1453 110.069 39.1028 108.591 39.1453 108.111C39.1406 107.693 39.1074 107.277 39.0461 106.864C39.0248 106.699 39.0035 106.527 38.9799 106.357C40.1262 106.068 40.8707 105.801 40.8707 105.801L40.7384 90.3305C41.7122 88.4453 41.8918 84.3072 41.8871 81.3756C41.8871 79.4904 41.802 78.0953 41.802 78.0953L43.1327 75.9296C43.1327 75.9296 43.4399 73.3374 42.953 72.7695C42.7379 72.5126 42.8348 72.2463 43.0121 72.0272C43.1054 71.9509 43.2041 71.8816 43.3076 71.8198C43.2959 71.8034 43.2856 71.786 43.2768 71.7679C43.3697 71.6905 43.4685 71.6204 43.5723 71.5582C43.5723 71.5582 43.0996 70.8277 43.5226 70.519C43.9197 70.7876 44.2743 71.0021 44.5437 71.1552C44.5248 71.3273 44.5059 71.4262 44.5059 71.4262L44.6193 71.1906C44.8793 71.3367 45.0377 71.4262 45.0377 71.4262C45.0377 71.4262 47.1223 67.2858 47.0774 66.6778C47.0325 66.0698 48.4956 63.4964 48.4956 63.4964C48.4956 63.4964 48.6728 62.1438 49.4717 61.5782C50.2706 61.0126 50.091 56.9146 50.091 56.9146C50.091 56.9146 50.3132 54.7795 50.845 53.91C51.3768 53.0404 50.3699 51.8574 50.3699 51.8574ZM10.4824 50.0405L10.5226 51.0279C10.2862 50.6485 10.116 50.3775 10.116 50.3775L10.4824 50.0405Z" fill="url(#paint0_linear_166_142)"/>
<path d="M45 69.9279L44.5358 72C44.5358 72 40.8179 70.0068 40.1496 67.4842C39.4812 64.9617 41.2692 64 41.2692 64L44.7357 65.536L45 69.9279Z" fill="white"/>
<path opacity="0.1" d="M45 69.9279L44.5358 72C44.5358 72 40.8179 70.0068 40.1496 67.4842C39.4812 64.9617 41.2692 64 41.2692 64L44.7357 65.536L45 69.9279Z" fill="black"/>
<path d="M22 143.455C22 143.455 18.3218 144.821 15.7931 144.993C14.4506 145.084 13.7448 144.252 13.3816 143.45C13.1842 143.008 13.0555 142.538 13 142.056L13.3333 138.372L13.508 136.413L18.8805 135L19.6414 137.354L19.7127 137.531C20.0161 138.319 21.2437 141.512 21.2069 142.179C21.2039 142.351 21.2356 142.523 21.3 142.682C21.3644 142.842 21.4602 142.987 21.5816 143.108C21.706 143.241 21.8466 143.358 22 143.455Z" fill="white"/>
<path d="M47.9966 142.048C48.0064 142.164 47.9951 142.281 47.9634 142.393C47.9634 142.393 39.8611 143.759 38.2037 142.393C37.7378 141.994 37.1948 141.698 36.6093 141.524C36.0239 141.349 35.4089 141.3 34.8037 141.38C34.8037 141.38 31.6688 141.466 31.1456 140.421C30.9277 139.983 30.9846 139.133 31.1195 138.296C31.2574 137.51 31.4408 136.732 31.6688 135.968L31.7943 135.867L32.5402 135.261L41.2723 135H41.3386C41.296 136.806 44.3006 138.879 44.3006 138.879C47.4994 140.076 47.9705 141.43 47.9966 142.048Z" fill="white"/>
<path opacity="0.1" d="M47.9974 141.989C48.0058 142.112 47.9938 142.236 47.9619 142.355C47.9619 142.355 39.861 143.806 38.2063 142.355C37.7402 141.931 37.1968 141.616 36.6111 141.431C36.0253 141.245 35.41 141.193 34.8045 141.278C34.8045 141.278 31.6678 141.37 31.1446 140.26C30.9292 139.794 30.9836 138.891 31.1186 138C32.3259 138.13 34.2316 138.453 34.9796 139.227C36.1112 140.398 38.0287 141.569 39.2029 141.663C40.1309 141.724 45.6491 141.912 47.9974 141.989Z" fill="black"/>
<path opacity="0.1" d="M22 144.187C22 144.187 18.159 144.906 15.5183 144.996C14.1163 145.044 13.3793 144.606 13 144.185C13.9795 144.352 15.3358 144.527 16.0488 144.367C16.8938 144.175 19.8898 144.053 21.5703 144C21.697 144.072 21.8414 144.134 22 144.187Z" fill="black"/>
<path d="M27.4099 31.7304C24.2294 30.5566 20.1381 26.6785 21.1597 24.8663C21.3855 24.4087 21.5203 23.9153 21.5573 23.4112C21.623 22.7265 21.6327 22.038 21.5862 21.352C21.5144 20.2276 21.372 19.1083 21.1597 18C21.1597 18 31.0892 18.2128 30.5109 19.6016C30.3422 20.0112 30.3133 20.7182 30.3615 21.5075C30.4097 22.2969 30.5277 23.1961 30.653 23.9534C30.8241 24.9899 31 25.7838 31 25.7838C31 25.7838 30.3904 26.5915 30.0362 26.635C29.682 26.6785 31.9734 33.4121 27.4099 31.7304Z" fill="#FFB27E"/>
<path opacity="0.1" d="M20 137.922L19.9218 138.013C16.8141 134.015 13.0555 139 13.0555 139L13 138.893L13.1917 136.631L19.0868 135L19.9218 137.718L20 137.922Z" fill="black"/>
<path opacity="0.1" d="M41 135.301C41 135.301 39.0162 135.251 37.9582 136.42C36.9002 137.589 31.7865 136.671 32.0069 136.42C32.0712 136.293 32.1105 136.148 32.1215 135.998L32.8158 135.301L40.9449 135C40.9758 135.193 41 135.301 41 135.301Z" fill="black"/>
<path d="M22.9768 107.722C22.8264 108.119 22.712 108.529 22.6351 108.949C22.4476 110.098 22.3955 111.268 22.4799 112.43C22.5631 114.104 22.4799 125.321 22.4799 125.321C22.4799 125.321 20.7015 128.312 19.7077 129.366C18.7139 130.421 21.7312 132.315 21.7312 132.315C22.1809 135.043 19.4558 138.122 19.4558 138.122C16.6858 134.56 13.3357 139 13.3357 139C13.3357 139 11.5145 135.652 11.0604 134.457C10.6062 133.261 12.8388 132.437 13.6235 131.949C14.4082 131.461 13.583 128.601 13.583 128.601C13.583 128.601 12.922 126.093 12.1351 123.805C11.3481 121.516 13.003 110.128 13.003 110.128C13.003 110.128 13.0884 108.103 13.293 107.397C13.3951 106.888 13.4156 106.364 13.3537 105.848C13.3402 105.673 13.3245 105.53 13.3133 105.429C13.302 105.329 13.293 105.286 13.293 105.286L13.3245 105.228L14.4487 103C14.4487 103 23.5165 106.319 22.9768 107.722Z" fill="#6C63FF"/>
<path d="M41 135.57C41 135.57 38.9086 135.526 37.7932 136.51C36.6778 137.495 31.2866 136.726 31.519 136.51C31.7514 136.294 31.7304 134.696 31.7304 134.696C28.5678 130.327 31.2657 128.555 31.2657 128.555C31.2657 128.555 29.8552 121.682 29.5995 119.132C29.4206 117.353 29.1999 112.552 29.0813 109.833C29.0302 108.658 29 107.847 29 107.847L31.5608 107.332L31.8931 107.267L38.1255 106C38.1255 106 38.2974 107.175 38.4136 108.136C38.4724 108.546 38.5042 108.96 38.5089 109.375C38.4694 109.845 38.5089 111.318 38.5089 111.318L38.7227 115.727C38.5848 116.19 38.5128 116.67 38.5089 117.153C38.5531 117.717 39.3641 125.757 39.3641 125.757C39.3641 125.757 40.7746 130.555 40.2936 130.901C39.8126 131.246 41 135.57 41 135.57Z" fill="#6C63FF"/>
<path opacity="0.1" d="M30.9767 19.3835C30.8148 19.7372 30.787 20.3479 30.8332 21.0298C29.5565 21.6867 28.0888 22.0226 26.5987 21.9988C25.1086 21.975 23.6565 21.5926 22.4094 20.8954C22.3405 19.9241 22.2038 18.9573 22 18C22 18 31.5318 18.1838 30.9767 19.3835Z" fill="black"/>
<path d="M34.995 13.9532C35.022 16.0619 34.1527 18.0943 32.5782 19.6033C31.0037 21.1122 28.853 21.9742 26.5994 21.9994C24.3457 22.0247 22.1736 21.2113 20.5609 19.738C18.9482 18.2648 18.027 16.2525 18 14.1438C18 14.0787 18 14.0183 18 13.9532C18 11.8439 18.8955 9.82097 20.4896 8.32945C22.0836 6.83793 24.2457 6 26.5 6C28.7543 6 30.9163 6.83793 32.5104 8.32945C34.1045 9.82097 35 11.8439 35 13.9532H34.995Z" fill="#FFB27E"/>
<path opacity="0.1" d="M27.4099 31.7172C24.2294 30.4873 20.1381 26.4236 21.1597 24.5248C21.3855 24.0452 21.5203 23.5283 21.5573 23L25.9112 26.5627L28.605 28.7612L30.653 23.5754C30.8241 24.6615 31 25.4934 31 25.4934C31 25.4934 30.3904 26.3397 30.0362 26.3852C29.682 26.4308 31.9734 33.4794 27.4099 31.7172Z" fill="black"/>
<path d="M39 47.5676L35.3041 107.694L30.4839 108L18 73.1362L20.0476 31.745L20.4811 23L26.0311 27.414L28.7694 29.589L30.9125 24.3069L34.8975 27.6702L39 47.5676Z" fill="#6C63FF"/>
<path opacity="0.1" d="M22.9762 107.759C22.8213 108.16 22.7035 108.576 22.6243 109C19.3057 108.466 16.0826 107.415 13.0625 105.881L13 105.848L13.0208 105.458V105.255L14.1784 103C14.1784 103 23.5318 106.339 22.9762 107.759Z" fill="black"/>
<path opacity="0.1" d="M32 108.762C31.0375 108.879 30.0667 108.959 29.092 109C29.0342 108.065 29 107.419 29 107.419L31.9132 107L32 108.762Z" fill="black"/>
<path opacity="0.1" d="M39 107.499C37.2263 107.804 34.4847 108.148 32.0349 107.933L32 106.889L38.6907 106C38.6907 106 38.8678 106.818 39 107.499Z" fill="black"/>
<path opacity="0.1" d="M32 108.649C22.5158 110.308 13.8298 105.551 13.8298 105.551L13.913 103.94C13.913 103.94 14.1282 85.6696 13.5314 84.269C12.9345 82.8683 12.4696 75.775 12.8073 74.692C13.145 73.6089 11.5744 57.2562 11.5744 57.2562L11.3199 50.6203L2 46.7406L6.16377 37.8462C6.72604 36.5994 7.20972 35.317 7.61185 34.0068C8.33588 31.6961 11.697 29.4281 11.697 29.4281C11.697 29.4281 15.1437 27.1624 16.5061 27.2477C17.8686 27.333 19.6544 25.2427 19.6544 25.2427C20.9729 21.7992 22.1665 23.3468 22.1665 23.3468C22.1665 23.5127 22.1666 23.3468 22.1018 23.8563C21.6391 27.6364 29.5827 39.581 29.696 39.7943L30.4617 58.6734L31.2274 82.565L32 108.649Z" fill="black"/>
<path d="M32 108.649C22.202 110.308 13.226 105.551 13.226 105.551L13.3145 103.94C13.3145 103.94 13.5343 85.6696 12.9177 84.269C12.3012 82.8683 11.8208 75.7679 12.1721 74.6754C12.5234 73.5828 10.8912 57.2467 10.8912 57.2467L10.626 50.6108L1 46.7312L5.30157 37.8367C5.88109 36.5902 6.38075 35.3086 6.79756 33.9997C7.54556 31.6961 11.0298 29.4257 11.0298 29.4257C11.0298 29.4257 14.5906 27.16 15.9958 27.2453C17.4009 27.3307 19.2554 25.2427 19.2554 25.2427C20.6199 21.7992 22.1231 23.3468 22.1231 23.3468C22.1231 23.5127 21.9797 23.5838 22.0562 23.8563C23.1077 27.5226 29.5218 39.581 29.6389 39.7943L30.4299 58.6734L31.2042 82.5768L32 108.649Z" fill="white"/>
<path opacity="0.1" d="M29 40C27.9492 39.5584 22.3828 33.1573 22.3828 33.1573V31.7004C22.1803 31.2204 20.9746 31.5132 20 31.8492L20.4194 23L20.896 23.3984C21.9373 27.109 28.8856 39.7864 29 40Z" fill="black"/>
<path d="M30 40C28.8301 39.5558 22.6469 33.1544 22.6469 33.1544V31.6945C22.4219 31.2143 21.0852 31.5072 20 31.8434L20.4579 23L20.9873 23.3962C22.1546 27.1035 29.8703 39.7839 30 40Z" fill="white"/>
<path opacity="0.1" d="M13.5307 70.7299C13.6605 70.7299 20.2559 70 20.2559 70C20.2559 70 24.2495 78.2674 23.9877 80.2759C23.7258 82.2844 23.2517 84.067 21.6453 83.7517C20.0389 83.4364 13 84 13 84L13.5307 70.7299Z" fill="black"/>
<path d="M13.5306 70.6783C13.6627 70.6783 20.2569 70 20.2569 70C20.2569 70 24.2473 77.6939 23.9879 79.5395C23.7285 81.3851 23.2497 83.0623 21.646 82.7693C20.0422 82.4763 13 83 13 83L13.5306 70.6783Z" fill="white"/>
<path d="M18.6829 67C18.6829 67 24.8636 69.8347 24.9961 70.6974C25.1286 71.5601 21.8503 70.3194 21.1422 70.1674C20.6758 70.073 20.2014 70.0098 19.7235 69.9785L15 70.0873L18.6829 67Z" fill="#FFB27E"/>
<path opacity="0.1" d="M27.5 41C27.7761 41 28 40.5523 28 40C28 39.4477 27.7761 39 27.5 39C27.2239 39 27 39.4477 27 40C27 40.5523 27.2239 41 27.5 41Z" fill="black"/>
<path d="M27.5 40C27.7761 40 28 39.7761 28 39.5C28 39.2239 27.7761 39 27.5 39C27.2239 39 27 39.2239 27 39.5C27 39.7761 27.2239 40 27.5 40Z" fill="#3F3D56"/>
<path opacity="0.1" d="M29 68C29.5523 68 30 67.7761 30 67.5C30 67.2239 29.5523 67 29 67C28.4477 67 28 67.2239 28 67.5C28 67.7761 28.4477 68 29 68Z" fill="black"/>
<path d="M29 68C29.5523 68 30 67.7761 30 67.5C30 67.2239 29.5523 67 29 67C28.4477 67 28 67.2239 28 67.5C28 67.7761 28.4477 68 29 68Z" fill="#3F3D56"/>
<path opacity="0.1" d="M28.5 55C28.7761 55 29 54.5523 29 54C29 53.4477 28.7761 53 28.5 53C28.2239 53 28 53.4477 28 54C28 54.5523 28.2239 55 28.5 55Z" fill="black"/>
<path d="M28.5 54C28.7761 54 29 53.7761 29 53.5C29 53.2239 28.7761 53 28.5 53C28.2239 53 28 53.2239 28 53.5C28 53.7761 28.2239 54 28.5 54Z" fill="#3F3D56"/>
<path d="M42.8884 70.4744C42.8884 70.4744 43.3225 71.1283 42.8884 71.4221C42.4544 71.7159 42.9309 72.4693 42.9309 72.4693C42.9309 72.4693 41.8482 73.1043 42.3247 73.6801C42.8012 74.2558 42.4992 76.8408 42.4992 76.8408L41.1972 79.0182C41.1972 79.0182 41.275 80.4137 41.2797 82.2997C41.2797 85.2424 41.1075 89.3793 40.1546 91.2653L40.2819 106.739C40.2819 106.739 35.7223 108.415 31.9058 107.903L31.3397 83.0721C31.3397 83.0721 32.1653 68.9912 32.4695 66.2901C32.6476 64.8879 32.7202 63.4741 32.6865 62.0608C32.6865 62.0608 32.5568 57.834 32.1204 55.8745C32.1204 55.8745 31.6487 47.3733 31.6015 45.0206C31.5803 43.8952 31.6392 40.6112 31.7053 37.4885C31.7784 34.0742 31.861 30.8543 31.861 30.8543L31 24.0093C31 24.0093 31.861 23.924 32.1204 24.2699C32.2367 24.379 32.363 24.4766 32.4978 24.5614C33.9863 25.5707 39.237 28.6745 39.237 28.6745C39.237 28.6745 42.1431 29.8355 42.8389 31.4988C43.5348 33.1621 44.0183 34.342 44.3556 34.8159C44.6929 35.2897 44.8769 37.5169 44.8769 37.5169C44.8769 37.5169 45.8771 41.6158 46.6578 42.3101C47.4386 43.0043 48 47.4112 48 47.4112L41.1005 52.8607C41.1005 52.8607 40.4942 61.9258 40.3645 62.2765C40.2348 62.6271 42.8884 70.4744 42.8884 70.4744Z" fill="white"/>
<path d="M42.9582 70.5114C42.9582 70.5114 43.3828 71.1647 42.9582 71.4582C42.5336 71.7518 42.9977 72.5045 42.9977 72.5045C42.9977 72.5045 41.9327 73.1388 42.4014 73.714C42.8701 74.2892 42.5731 76.8716 42.5731 76.8716L41.297 79.0468C41.297 79.0468 41.3735 80.441 41.3805 82.3251C41.3805 85.2649 41.2111 89.3977 40.2738 91.2818L40.4014 106.741C40.4014 106.741 35.9165 108.414 32.1624 107.903L31.6079 83.0968C31.6079 83.0968 32.4176 69.0297 32.7193 66.3313C32.8946 64.9305 32.9652 63.518 32.9304 62.1062C32.9304 62.1062 32.8028 57.8835 32.3759 55.926C32.3759 55.926 31.9118 47.4333 31.8631 45.0828C31.8422 43.9585 31.9002 40.6778 31.9652 37.5581C32.0371 34.1473 32.1183 30.9306 32.1183 30.9306L31 24C31 24 32.1183 24 32.3759 24.3527C32.4891 24.4629 32.6136 24.5605 32.7471 24.6438C34.2088 25.6522 39.3736 28.7529 39.3736 28.7529C39.3736 28.7529 42.2251 29.9128 42.9211 31.5744C43.6172 33.236 44.0812 34.4148 44.413 34.8882C44.7448 35.3616 44.9258 37.5865 44.9258 37.5865C44.9258 37.5865 45.9095 41.6815 46.6775 42.375C47.4455 43.0685 48 47.4711 48 47.4711L41.2135 52.9152C41.2135 52.9152 40.6172 61.9713 40.4872 62.3217C40.3573 62.672 42.9582 70.5114 42.9582 70.5114Z" fill="white"/>
<path opacity="0.1" d="M34.9845 33.0742L35.6693 34.8221L32.0749 38C32.155 34.729 32.2455 31.6441 32.2455 31.6441L31 25C31 25 32.2455 25 32.5323 25.3382C32.6584 25.4439 32.797 25.5375 32.9457 25.6174L36 33.3557L34.9845 33.0742Z" fill="black"/>
<path d="M34.9701 32.0773L35.6524 33.8226L32.0736 37C32.1509 33.7296 32.2436 30.6453 32.2436 30.6453L31 24C31 24 32.2436 24 32.5268 24.3382C32.6531 24.4432 32.7911 24.5368 32.9387 24.6173L36 32.361L34.9701 32.0773Z" fill="white"/>
<path opacity="0.1" d="M34.995 14.0933C34.996 14.9455 34.8552 15.7925 34.5777 16.6027C34.531 16.6101 34.4831 16.6085 34.437 16.5979C34.3909 16.5874 34.3475 16.5681 34.3095 16.5412C34.2424 14.4126 33.1445 12.4117 31.7908 10.7112C31.41 10.1983 30.9493 9.74375 30.4246 9.36315C29.8934 8.98356 29.2329 8.80568 28.5716 8.86412C27.8264 8.96109 27.1682 9.44356 26.4155 9.50505C25.422 9.5831 24.5327 8.92797 23.5466 8.89723C23.1456 8.90039 22.75 8.98518 22.3863 9.1459C22.0226 9.30662 21.6992 9.53955 21.4377 9.82907C20.9192 10.4114 20.5342 11.0905 20.3076 11.8228C19.917 12.934 19.7043 14.0949 19.6767 15.2664C19.6642 15.9286 19.5972 16.7588 18.9513 17C19.0002 16.5133 18.9422 16.0223 18.781 15.5581C18.6198 15.0939 18.3589 14.6668 18.0149 14.3038L18 14.2873C18 14.221 18 14.1595 18 14.0933C18 11.9468 18.8955 9.88826 20.4896 8.37047C22.0836 6.85268 24.2457 6 26.5 6C28.7543 6 30.9163 6.85268 32.5104 8.37047C34.1045 9.88826 35 11.9468 35 14.0933H34.995Z" fill="black"/>
<path d="M29.657 1.52913C28.4507 0.951958 27.0787 0.842795 25.7989 1.22217C25.1558 1.41579 24.55 1.72984 23.8977 1.88804C22.5048 2.23042 20.8799 1.85971 19.6844 2.68851C19.0204 3.16075 18.6212 3.90691 18.2497 4.63417L17.3212 6.43107C16.8151 7.41571 16.3044 8.41688 16.0932 9.50069C15.8819 10.5845 16.0096 11.7982 16.6851 12.6718C17.175 13.3047 17.9039 13.7037 18.4378 14.3011C18.7585 14.6653 19.0017 15.0931 19.1519 15.5576C19.3021 16.0221 19.3562 16.5132 19.3106 17C19.9142 16.7639 19.9745 15.9304 19.9885 15.2692C20.0145 14.0996 20.2133 12.9407 20.5781 11.8312C20.7899 11.1001 21.1497 10.4221 21.6343 9.84071C21.8785 9.55135 22.1807 9.31844 22.5206 9.15758C22.8605 8.99672 23.2303 8.91163 23.6052 8.90802C24.5337 8.94108 25.3671 9.59514 26.2864 9.51485C26.9828 9.45582 27.6002 8.97413 28.3013 8.87732C28.9194 8.81783 29.5371 8.99553 30.0331 9.37554C30.5238 9.75433 30.9538 10.2084 31.3075 10.7215C32.575 12.4215 33.6033 14.4097 33.6637 16.5419C33.926 16.7355 34.3044 16.4805 34.4344 16.1783C34.5644 15.876 34.569 15.5219 34.7338 15.2338C34.9242 14.9009 35.2886 14.7214 35.5742 14.4711C36.2984 13.8359 36.4795 12.7663 36.4517 11.7958C36.4238 10.8253 36.2381 9.84071 36.4192 8.88677C36.5283 8.30354 36.7743 7.75337 36.909 7.17487C37.0436 6.59636 37.0599 5.94702 36.7418 5.44879C36.2776 4.71917 35.3003 4.57277 34.4483 4.5043C33.4803 4.41929 32.6144 4.52791 31.9969 3.69912C31.7064 3.26717 31.3802 2.86115 31.022 2.48543C30.8943 2.36029 29.657 1.58108 29.657 1.52913Z" fill="#2D3A64"/>
<path opacity="0.1" d="M4.19338 51.5638L1.76873 47L1 54.0431C1 54.0431 1.42732 57.1723 1.34139 57.6521C1.25546 58.1318 3.09252 62.4333 3.09252 62.4333C3.09252 62.4333 9.16111 73.4351 11.6392 74L20 67.9118L17.7797 65.0426C17.7797 65.0426 17.011 64.7377 16.8182 65.0426C16.8182 65.0426 12.6935 57.8246 12.2685 57.3046C11.8435 56.7847 11.9248 55.7377 11.9248 55.7377C11.9248 55.7377 11.2838 55.0428 11.4975 54.3905C11.7111 53.7382 10.2712 51.4787 10.2712 51.4787L11.595 50.219L4.19338 51.5638Z" fill="black"/>
<path d="M2.4087 46L1.76817 46.5314L1 53.6967C1 53.6967 1.42701 56.8802 1.34114 57.3683C1.25528 57.8564 3.09332 62.2325 3.09332 62.2325C3.09332 62.2325 9.15512 73.4253 11.6314 74L20 67.8061L17.779 64.8871C17.779 64.8871 17.0109 64.5769 16.8182 64.8871C16.8182 64.8871 12.6989 57.5438 12.2719 57.0149C11.8449 56.4859 11.9307 55.4207 11.9307 55.4207C11.9307 55.4207 11.2902 54.7138 11.5037 54.0502C11.7172 53.3865 10.2644 51.0879 10.2644 51.0879L11.5873 49.8063L2.4087 46Z" fill="white"/>
<path opacity="0.1" d="M42.3422 73.3498C42.8541 73.9436 42.5316 76.6121 42.5316 76.6121L41.1188 78.8432C41.1188 78.8432 41.2033 80.285 41.2084 82.2302L38.8332 82.9389C38.6182 83.0029 38.3903 83.0169 38.1685 82.9797C37.9467 82.9425 37.7374 82.8552 37.5581 82.7252C37.3788 82.5951 37.2346 82.4259 37.1377 82.2319C37.0407 82.0378 36.9937 81.8244 37.0007 81.6095L37.4128 69L42.9539 71.0209C42.483 71.3337 43 72.1011 43 72.1011C43 72.1011 41.8252 72.756 42.3422 73.3498Z" fill="black"/>
<path d="M42.4514 73.3487C42.8783 73.9396 42.6093 76.6059 42.6093 76.6059L41.4353 78.8377C41.4353 78.8377 41.5057 80.2758 41.5121 82.2194L39.4948 82.9397C39.3197 83.0025 39.1339 83.0165 38.953 82.9805C38.7722 82.9444 38.6015 82.8594 38.4552 82.7325C38.309 82.6056 38.1914 82.4404 38.1123 82.2509C38.0332 82.0615 37.9949 81.8531 38.0006 81.6432L38.3442 69L42.9637 71.0242C42.5688 71.3367 43 72.1034 43 72.1034C43 72.1034 42.0202 72.7554 42.4514 73.3487Z" fill="white"/>
<path d="M44 67.9709C44 67.9709 43.6606 70.2691 42.8109 70.4038C41.9612 70.5384 41.5802 74.1216 40.7328 73.9968C39.8854 73.872 40.4465 70.6632 40.4765 70.0415C40.5065 69.4198 39.5529 66.845 40.2641 66.26C40.9753 65.675 43.238 66.26 43.238 66.26L44 67.9709Z" fill="#FFB27E"/>
<path opacity="0.1" d="M46.0522 50.326L47.74 47C47.74 47 48.4146 49.5349 48.4146 50.8891C48.4146 52.2433 49.3548 52.3763 49.3548 52.3763C49.3548 52.3763 50.385 53.5642 49.8419 54.4313C49.2987 55.2985 49.082 57.4462 49.082 57.4462C49.082 57.4462 49.2598 61.5538 48.4536 62.1216C47.6475 62.6894 47.4672 64.046 47.4672 64.046C47.4672 64.046 45.9889 66.6237 46.0351 67.2366C46.0814 67.8496 43.9747 72 43.9747 72C43.9747 72 45.0049 66.8422 39.0014 64.6138C39.0014 64.6138 38.9551 62.8652 39.4032 62.3853C39.8513 61.9054 40.5503 61.6726 40.112 59.2589C39.6736 56.8451 39.9853 53.9348 39.9853 53.3527C39.9853 52.7707 41.3297 49.1429 41.3297 49.1429L46.0522 50.326Z" fill="black"/>
<path d="M47.2607 47L48.738 47.4663C48.738 47.4663 49.4132 49.9539 49.4132 51.2828C49.4132 52.6118 50.3542 52.7423 50.3542 52.7423C50.3542 52.7423 51.3853 53.908 50.8417 54.759C50.2981 55.61 50.0787 57.7176 50.0787 57.7176C50.0787 57.7176 50.2591 61.7487 49.4522 62.3059C48.6453 62.8631 48.4771 64.1943 48.4771 64.1943C48.4771 64.1943 46.9974 66.724 47.0437 67.3255C47.0901 67.927 44.979 72 44.979 72C44.979 72 46.0102 66.9384 40.0012 64.7516C40.0012 64.7516 39.9573 63.0356 40.4058 62.5647C40.8544 62.0937 41.554 61.8652 41.1152 59.4965C40.6764 57.1278 40.9885 54.2717 40.9885 53.7005C40.9885 53.1293 42.3341 49.5692 42.3341 49.5692L47.2607 47Z" fill="white"/>
<path opacity="0.1" d="M33 128.012C33 128.012 34.9973 127.767 36.6746 129.49C38.3518 131.214 33 128.012 33 128.012Z" fill="black"/>
<g opacity="0.1">
<path opacity="0.1" d="M35.9468 13.8526C35.6559 14.1057 35.2823 14.2831 35.0883 14.6166C34.9228 14.9027 34.918 15.2575 34.7856 15.5626C34.6532 15.8677 34.2676 16.1207 33.998 15.9268C33.9365 13.7982 32.8888 11.7997 31.5998 10.0969C31.2394 9.5837 30.8014 9.1297 30.3014 8.75115C29.7955 8.36974 29.1655 8.19093 28.5347 8.24976C27.8252 8.34673 27.2008 8.8292 26.4842 8.89069C25.5381 8.96874 24.6891 8.31362 23.7501 8.28287C23.3686 8.28576 22.9922 8.37044 22.6462 8.53119C22.3003 8.69194 21.9928 8.92502 21.7445 9.21471C21.2508 9.79704 20.8843 10.4762 20.6684 11.2085C20.2968 12.3197 20.0943 13.4806 20.0677 14.652C20.0535 15.3119 19.992 16.1349 19.3818 16.3809C19.396 16.5564 19.396 16.7328 19.3818 16.9083C19.9991 16.6718 20.0606 15.8369 20.0748 15.1747C20.1014 14.0032 20.3039 12.8424 20.6755 11.7312C20.8914 10.9988 21.2579 10.3197 21.7516 9.73739C22.0001 9.44775 22.3075 9.21454 22.6534 9.05342C22.9993 8.8923 23.3757 8.80698 23.7572 8.80319C24.7033 8.8363 25.5547 9.49143 26.4913 9.41101C27.2008 9.35189 27.8299 8.86941 28.5418 8.77244C29.1723 8.71294 29.8023 8.8909 30.3085 9.27147C30.8085 9.65088 31.2466 10.1057 31.6069 10.6196C32.8959 12.3224 33.9436 14.3138 34.0051 16.4495C34.2747 16.6434 34.6602 16.388 34.7927 16.0853C34.9251 15.7825 34.9299 15.4278 35.0954 15.1392C35.2894 14.8058 35.663 14.626 35.9539 14.3753C36.6919 13.7391 36.8763 12.6677 36.8479 11.6957C36.8479 11.6649 36.8479 11.6366 36.8479 11.6058C36.8006 12.4525 36.576 13.311 35.9468 13.8526Z" fill="black"/>
<path opacity="0.1" d="M18.4855 13.6871C17.9439 13.0887 17.2013 12.6866 16.7022 12.0528C16.2808 11.4933 16.0406 10.8182 16.014 10.1182C15.9398 10.9934 16.1842 11.8661 16.7022 12.5755C17.2013 13.2093 17.9439 13.609 18.4855 14.2074C19.0086 14.7924 19.3231 15.5343 19.3795 16.317C19.4151 15.8411 19.3542 15.3628 19.2006 14.9109C19.047 14.459 18.8038 14.0428 18.4855 13.6871Z" fill="black"/>
<path opacity="0.1" d="M37.3068 6.54459C37.1673 7.12404 36.9189 7.6751 36.8054 8.25928C36.7372 8.6543 36.7126 9.05561 36.7321 9.456C36.7399 9.22982 36.7644 9.00452 36.8054 8.78196C36.9189 8.19778 37.1673 7.64672 37.3068 7.06727C37.387 6.74749 37.4134 6.41659 37.3849 6.08813C37.3696 6.24193 37.3435 6.39446 37.3068 6.54459Z" fill="black"/>
</g>
<defs>
<linearGradient id="paint0_linear_166_142" x1="44795.3" y1="127514" x2="44795.3" y2="38290.1" gradientUnits="userSpaceOnUse">
<stop stop-color="#808080" stop-opacity="0.25"/>
<stop offset="0.54" stop-color="#808080" stop-opacity="0.12"/>
<stop offset="1" stop-color="#808080" stop-opacity="0.1"/>
</linearGradient>
</defs>
</svg>
