<svg width="42" height="139" viewBox="0 0 42 139" fill="none" xmlns="http://www.w3.org/2000/svg">
<path d="M41.8748 38.1936C41.8691 38.1699 41.8565 38.1483 41.8387 38.1315C41.4796 37.7803 36.9005 31.3617 36.9005 31.3617C36.9005 31.3617 36.6595 30.6451 36.269 29.7134C36.3942 29.5528 36.4882 29.3706 36.5462 29.176C36.5673 29.0935 36.5826 29.0097 36.592 28.9251C36.592 28.8989 36.6112 28.8774 36.6185 28.8511C36.7022 28.5271 36.6938 28.1865 36.5944 27.8669C36.5676 27.9489 36.5346 28.0288 36.4956 28.1058C36.4049 27.8275 36.2837 27.56 36.1341 27.3079C35.5267 26.2712 34.6591 25.3969 34.0204 24.3865C33.0533 22.8165 32.669 20.9614 32.9335 19.1407C32.9335 19.2339 32.9335 19.3294 32.9335 19.4226C32.9577 19.0615 33.006 18.7024 33.0781 18.3477C33.1788 17.9439 33.3135 17.5491 33.4806 17.1676C34.0542 15.8657 34.9821 14.731 35.546 13.4244C35.7353 12.9837 35.879 12.5251 35.975 12.0556C36.1737 11.2716 36.2461 10.4613 36.1895 9.6549C36.1895 9.846 36.1582 10.0371 36.1292 10.2258C36.0683 8.2869 35.2783 6.44058 33.9144 5.04935C31.9454 3.08816 29.1184 2.32615 26.4143 1.92483C25.278 1.79342 24.1928 1.38287 23.2571 0.730445C22.2184 0.0639772 20.876 -0.0960721 19.6613 0.0496431C18.2652 0.199247 16.968 0.834947 16.0004 1.84361C14.7158 3.24344 14.1591 5.22611 12.6601 6.40617C11.7515 7.1228 10.5995 7.45723 9.54144 7.94454C8.48342 8.43185 7.48324 9.13892 7.14342 10.1852C7.14342 10.1852 7.14342 10.1709 7.14342 10.1637V10.2234L7.12896 10.2617C6.77709 11.499 7.45673 12.7579 7.81101 13.9929C8.17975 15.2709 8.20385 16.6206 8.22313 17.9416C8.24964 19.5564 8.27374 21.1736 8.24723 22.7908C8.23518 23.4262 8.21349 24.0688 8.16529 24.7018C7.59485 24.8727 7.04078 25.0933 6.50957 25.3611C5.96972 25.7098 3.95009 27.8717 3.95009 27.8717L0 42.8302L0.0530217 42.8899L0 43.093L0.200032 43.0476C0.759166 43.6448 2.42934 45.3456 4.23207 46.4062L4.40077 49.3396C4.40077 49.3396 4.60322 52.2826 7.33382 53.4985C7.39648 54.5185 7.5917 58.6606 6.68792 60.3017C6.06209 61.5006 5.76772 62.8424 5.83476 64.1906C5.83476 64.1906 6.15048 66.6797 5.79138 67.9888C5.58159 68.8636 5.56596 69.7732 5.74559 70.6546C5.74559 70.6546 5.74559 70.9437 5.74559 71.4405C5.74559 74.0897 5.77692 82.5794 5.74559 83.5397C5.6998 84.6743 5.74559 101.455 5.74559 101.455C5.74559 101.455 5.52145 109.842 4.80325 112.114C4.08505 114.386 4.26581 121.908 4.26581 121.908C4.26581 121.908 3.81513 130.868 5.40818 132.636C5.40818 132.715 5.39372 132.796 5.39131 132.875C5.39131 132.911 5.39131 132.951 5.39131 132.987C5.37203 133.668 5.50458 134.392 6.09505 134.614C7.30008 135.073 8.89313 136.449 9.19439 136.843C9.49564 137.237 11.2478 138.219 13.5325 137.956C14.9638 137.796 16.4041 137.731 17.8441 137.76C17.8441 137.76 18.7455 137.598 18.4538 136.487C18.2659 135.794 17.5621 134.729 17.0608 134.029C17.1524 134.053 17.2416 134.072 17.3259 134.089L17.4127 134.105H17.4802C17.5171 134.107 17.5541 134.107 17.591 134.105H17.6392C17.6842 134.109 17.7293 134.109 17.7742 134.105C18.3791 134.048 20.635 135.089 21.0374 135.777C21.4399 136.465 22.8594 136.988 23.9295 137.12C24.5658 137.196 26.1709 137.067 27.5181 136.895C28.1965 136.826 28.8685 136.704 29.5281 136.532C29.8462 136.413 29.9137 136.031 29.8221 135.601C29.7139 135.055 29.4195 134.562 28.9882 134.206C28.5978 133.931 28.082 133.207 27.7013 132.615L27.6 132.455C28.2724 131.819 29.4871 129.741 29.8558 129.311C30.3041 128.788 29.1328 109.656 29.1328 109.656V100.065L30.9283 90.9879L32.184 86.1841L33.2613 78.9317C33.2613 78.9317 35.1459 70.4611 34.5651 69.6298C34.5651 69.6131 34.0831 60.8917 33.577 58.7968C33.3577 57.8627 33.4131 55.7606 33.5433 53.7158C33.6792 53.582 33.7741 53.4125 33.8167 53.2273C33.8594 53.0421 33.8482 52.8487 33.7843 52.6696C33.7483 52.5471 33.7015 52.428 33.6445 52.3136C33.6445 52.2778 33.6445 52.2396 33.6445 52.2037C34.6856 51.7289 35.7735 51.3623 36.8908 51.1097C38.6863 50.7609 38.238 49.8436 38.238 49.8436C38.238 49.8436 38.6429 49.0577 38.9104 48.5776C39.178 48.0974 38.9562 43.8598 38.9104 43.511C38.8936 43.3701 38.7827 42.5913 38.655 41.7075C39.231 41.3014 39.9805 40.7973 40.7975 40.3196C42.352 39.4071 42.0026 38.4444 41.8748 38.1936ZM18.449 98.7562C18.449 98.7562 17.1018 102.163 17.6416 103.034C18.1815 103.906 17.5525 107.143 17.5525 107.143L17.1018 111.947C17.1018 111.947 15.8462 120.857 16.2944 122.952C16.6463 124.596 16.7764 129.504 16.8174 131.552C16.7866 131.564 16.7567 131.578 16.7282 131.595L16.668 131.626C16.8753 130.821 16.7885 129.192 15.7594 125.914L15.6726 112.377C15.6726 112.377 15.5136 96.74 16.7596 94.9915C18.0056 93.2429 18.4466 90.2736 18.4466 90.2736C18.4466 90.2736 18.1767 94.5567 18.0008 95.6914C17.8248 96.826 18.449 98.7562 18.449 98.7562ZM15.9401 132.404C15.9281 132.433 15.9136 132.462 15.904 132.488L15.8365 132.402C15.871 132.405 15.9056 132.406 15.9401 132.404Z" fill="url(#paint0_linear_166_202)"/>
<path d="M28.6941 137.376C28.0425 137.646 24.509 138.107 23.5214 137.978C22.5337 137.848 21.2259 137.307 20.8538 136.6C20.4818 135.893 18.396 134.826 17.8368 134.894C17.6075 134.901 17.3788 134.867 17.1603 134.792C16.7745 134.665 16.3977 134.509 16.0328 134.324C15.9819 134.016 15.9903 133.701 16.0576 133.397C16.0706 133.336 16.0872 133.276 16.1072 133.217C16.2388 132.817 16.5111 132.489 16.8649 132.305L16.9461 132.264C17.1024 132.191 17.2657 132.137 17.4331 132.103C19.2055 131.735 26.5182 132.473 26.5182 132.473C26.5182 132.473 26.7234 132.871 27.0052 133.363C27.357 133.973 27.835 134.716 28.1958 134.996C28.5955 135.366 28.8667 135.871 28.9647 136.43C29.0504 136.861 28.9873 137.256 28.6941 137.376Z" fill="white"/>
<path opacity="0.1" d="M28.6911 137.413C28.0395 137.667 24.5083 138.1 23.5207 137.979C22.533 137.857 21.2252 137.346 20.8509 136.684C20.4766 136.021 18.3953 135.015 17.8361 135.079C17.2769 135.143 16.0322 134.543 16.0322 134.543C16.0322 134.543 15.8383 133.626 16.402 133L17.5295 133.814C17.5295 133.814 20.5465 134.765 21.1057 135.648C21.6649 136.53 22.6841 137.023 24.1566 137.112C25.2569 137.186 27.7846 136.75 28.9685 136.532C29.0474 136.929 28.9865 137.3 28.6911 137.413Z" fill="black"/>
<path d="M18.2942 138.745C16.7585 138.716 15.2225 138.785 13.6964 138.953C11.2517 139.23 9.38502 138.198 9.05958 137.773C8.73414 137.347 7.04968 135.91 5.75574 135.406C5.12309 135.17 4.97469 134.399 5.00333 133.679C5.00333 133.641 5.00333 133.599 5.00333 133.561C5.0273 133.105 5.09706 132.652 5.21161 132.209L15.3418 132L16.2192 133.151L16.3546 133.327L16.8883 134.029C16.8883 134.029 17.1304 134.336 17.4481 134.784C17.9844 135.54 18.7342 136.655 18.9346 137.393C19.2549 138.573 18.2942 138.745 18.2942 138.745Z" fill="white"/>
<path opacity="0.1" d="M18.284 138.76C16.7495 138.732 15.2147 138.798 13.6897 138.956C11.2495 139.217 9.38166 138.246 9.05907 137.846C8.73649 137.445 7.04811 136.081 5.75516 135.624C5.123 135.402 4.97471 134.677 5.00332 134C5.72654 134.154 7.24582 134.547 7.84156 135.231C8.62202 136.145 10.019 137.682 12.004 137.779C13.6065 137.857 17.5087 137.597 18.9396 137.493C19.2466 138.599 18.284 138.76 18.284 138.76Z" fill="black"/>
<path opacity="0.1" d="M17 132.285C16.8838 133.379 16.5249 133.673 16.2666 133.739C16.2035 133.754 16.1386 133.754 16.0755 133.739C16.0416 133.736 16.0079 133.729 15.9748 133.719C15.9748 133.719 6.95223 136.247 5.12912 134.2C5.08283 134.148 5.03967 134.091 5 134.03C5.02378 133.437 5.09296 132.848 5.20658 132.272L15.2544 132L16.1246 133.496C16.2753 132.959 16.5871 132.519 16.9923 132.272L17 132.285Z" fill="black"/>
<path opacity="0.1" d="M26 133.646C25.8427 133.897 25.7117 134.04 25.629 133.99C25.2581 133.774 22.2177 133.025 21.252 133.669C20.2863 134.314 17.0182 133.774 17.0182 133.774C17.0182 133.774 17.0181 133.214 17 132.316C17.1398 132.228 17.2858 132.164 17.4355 132.123C19.0202 131.683 25.5585 132.567 25.5585 132.567C25.5585 132.567 25.75 133.057 26 133.646Z" fill="black"/>
<path d="M32.5637 79.4871L31.4664 86.8864L30.1904 91.7901L28.3633 101.06V110.872C28.3633 110.872 29.5499 130.395 29.0932 130.928C28.6364 131.461 26.9011 134.497 26.4443 134.32C25.9875 134.143 22.2439 133.518 21.0548 134.051C19.8656 134.584 15.8415 134.141 15.8415 134.141C15.8415 134.141 15.7496 126.565 15.2928 124.425C14.836 122.286 16.1145 113.193 16.1145 113.193L16.5713 108.292C16.5713 108.292 17.2118 104.992 16.6632 104.1C16.1145 103.209 17.4849 99.7394 17.4849 99.7394C17.4849 99.7394 16.8469 97.7745 17.0306 96.6164C17.2143 95.4583 17.4849 91.09 17.4849 91.09C17.4849 91.09 17.0306 94.1233 15.762 95.9041C14.4935 97.6848 14.6548 113.644 14.6548 113.644L14.7442 127.454C17.0306 134.766 14.7442 134.051 14.7442 134.051C14.7442 134.051 6.07028 135.924 4.31762 134.407C2.56496 132.891 3.06643 123.345 3.06643 123.345C3.06643 123.345 2.8852 115.679 3.61506 113.363C4.34492 111.047 4.5758 102.487 4.5758 102.487C4.5758 102.487 4.52863 85.3697 4.5758 84.214C4.61055 83.2449 4.5758 74.5688 4.5758 71.8577C4.5758 71.3538 4.5758 71.0558 4.5758 71.0558L5.62342 68.5167L18.036 67H23.9742C23.9742 67 32.9113 69.0497 33.8348 69.934C33.8545 69.9487 33.8713 69.9668 33.8844 69.9873C34.4827 70.8426 32.5637 79.4871 32.5637 79.4871Z" fill="#6C63FF"/>
<path opacity="0.1" d="M19 118C19 118 21.5879 124.527 22.8089 124.98C24.0299 125.433 19 118 19 118Z" fill="black"/>
<path opacity="0.1" d="M19 128C19 128 27.0799 128.268 26.9994 128.859C26.9189 129.449 19 128 19 128Z" fill="black"/>
<path opacity="0.1" d="M7 125C7.33601 125.397 13.4756 126.141 12.9705 126.866C12.4653 127.591 7.50516 129 7.50516 129L7 125Z" fill="black"/>
<path opacity="0.1" d="M6 114C6 114.277 7.33915 122.89 7.6982 123.26C8.05725 123.63 11 124 11 124L6 114Z" fill="black"/>
<path d="M15.4036 1.90376C14.117 3.34286 13.5604 5.38301 12.0615 6.59977C11.151 7.33276 9.99871 7.68215 8.93922 8.18058C7.87973 8.67901 6.83002 9.43887 6.5151 10.5677C6.16357 11.8382 6.84222 13.1356 7.19864 14.4061C7.56726 15.7206 7.58923 17.0937 7.6112 18.4693C7.63561 20.1332 7.66247 21.797 7.63317 23.4609C7.58923 26.0533 7.3744 28.7653 6 30.9618C10.963 32.5427 16.2409 32.7577 21.4455 32.9605C22.4457 33.0319 23.4505 33.0065 24.4458 32.8847C25.3083 32.7127 26.1614 32.4966 27.0017 32.2373C28.6633 31.7973 30.3754 31.5779 32.0941 31.5849C32.8436 31.5849 33.6077 31.6313 34.3303 31.4359C35.0529 31.2404 35.7486 30.7395 35.9439 30.0163C36.1172 29.3664 35.8633 28.6749 35.5313 28.091C34.9259 27.0257 34.0666 26.1363 33.4172 25.0857C32.7543 23.976 32.3611 22.7259 32.2691 21.4363C32.177 20.1466 32.3889 18.8533 32.8875 17.6606C33.4636 16.3192 34.3913 15.1513 34.9576 13.8075C35.5378 12.3647 35.692 10.7855 35.4021 9.2576C35.1122 7.72965 34.3902 6.31707 33.322 5.18754C31.352 3.16938 28.5251 2.38753 25.8202 1.97217C24.6813 1.83752 23.5947 1.41733 22.6613 0.750521C21.6238 0.0663984 20.2786 -0.0997495 19.0629 0.0517347C17.6604 0.209024 16.3614 0.866462 15.4036 1.90376Z" fill="#2D3A64"/>
<g opacity="0.1">
<path opacity="0.1" d="M33.0064 16.304C32.5186 17.4569 32.3096 18.7085 32.3963 19.9573C32.4499 19.0643 32.6563 18.1871 33.0064 17.3639C33.5686 16.0504 34.4778 14.9068 35.0328 13.591C35.4865 12.4923 35.6774 11.3027 35.5902 10.1172C35.5409 10.9482 35.3525 11.7649 35.0328 12.5335C34.4778 13.8494 33.5686 14.9906 33.0064 16.304Z" fill="black"/>
<path opacity="0.1" d="M8.23276 18.151C8.24712 19.0888 8.26147 20.029 8.26386 20.9669C8.26386 19.6749 8.2519 18.3854 8.23276 17.0959C8.21362 15.7585 8.1897 14.4044 7.82844 13.1149C7.5892 12.2967 7.23512 11.4665 7.11071 10.6411C6.89778 11.8134 7.50307 13.0024 7.82844 14.1723C8.1897 15.4499 8.21362 16.8136 8.23276 18.151Z" fill="black"/>
<path opacity="0.1" d="M34.4275 29.8045C33.7097 29.9982 32.9728 29.9552 32.2384 29.9504C30.5553 29.9397 28.8782 30.1505 27.2502 30.5772C26.4264 30.8301 25.5904 31.0409 24.7453 31.2088C23.7692 31.33 22.7836 31.3557 21.8026 31.2854C16.8742 31.0916 11.8764 30.8834 7.1561 29.4743C7.01595 29.7871 6.85614 30.0908 6.67761 30.3834C11.5414 31.9289 16.7139 32.1419 21.8121 32.3404C22.7932 32.4107 23.7788 32.3851 24.7548 32.2639C25.597 32.0976 26.4299 31.8876 27.2502 31.6347C28.8748 31.2063 30.5487 30.9932 32.2288 31.0007C32.9633 31.0007 33.7097 31.0461 34.4179 30.8523C35.1261 30.6586 35.8079 30.1729 35.9993 29.4647C36.0799 29.1368 36.0717 28.7932 35.9754 28.4695C35.7624 29.1394 35.1045 29.6059 34.4275 29.8045Z" fill="black"/>
</g>
<path d="M26.9853 26.3095C26.8017 26.7132 26.0274 30.2005 25.8437 30.558C25.6601 30.9155 24.6575 36.6379 24.5657 36.9589C24.4739 37.2799 17.9569 35.6164 17.9569 35.6164L14.0334 32.3941L10.0007 28.4617C10.0007 28.4617 9.88153 24.9135 12.8521 23.7754C13.054 23.6977 13.2614 23.6343 13.4725 23.5857C17.0759 22.737 16.7136 12 16.7136 12L24.1091 15.1299C24.1091 15.1299 22.7392 21.3945 22.7863 22.6032C22.7987 23.0093 23.1238 23.2623 23.5482 23.4155C24.2043 23.5984 24.8874 23.6708 25.5683 23.6295C25.5683 23.6295 27.169 25.9082 26.9853 26.3095Z" fill="#FFB27E"/>
<path d="M40.6739 37.5402L41.8207 37.8127C41.8207 37.8127 42.6693 38.9814 40.6739 40.0691C39.4069 40.7661 38.1906 41.5362 37.0328 42.3746L31.136 44L30 40.7713L35.4874 37L40.6739 37.5402Z" fill="#6C63FF"/>
<path opacity="0.1" d="M40.6739 37.5402L41.8207 37.8127C41.8207 37.8127 42.6693 38.9814 40.6739 40.0691C39.4069 40.7661 38.1906 41.5362 37.0328 42.3746L31.136 44L30 40.7713L35.4874 37L40.6739 37.5402Z" fill="black"/>
<path d="M2.82682 41.5673L1 43.5328C1 43.5328 4.29518 47.7248 6.83027 47.9859C9.36536 48.247 11 44.798 11 44.798L8.80609 41L2.82682 41.5673Z" fill="#6C63FF"/>
<path opacity="0.1" d="M2.82682 41.5673L1 43.5328C1 43.5328 4.29518 47.7248 6.83027 47.9859C9.36536 48.247 11 44.798 11 44.798L8.80609 41L2.82682 41.5673Z" fill="black"/>
<path opacity="0.1" d="M21 19C24.866 19 28 16.0899 28 12.5C28 8.91015 24.866 6 21 6C17.134 6 14 8.91015 14 12.5C14 16.0899 17.134 19 21 19Z" fill="black"/>
<path d="M21 19C24.866 19 28 15.866 28 12C28 8.134 24.866 5 21 5C17.134 5 14 8.134 14 12C14 15.866 17.134 19 21 19Z" fill="#FFB27E"/>
<path opacity="0.1" d="M34 71.3264C32.3543 71.5385 30.7334 71.9475 29.1646 72.5463C26.4633 73.5588 5.29469 72.5629 5 72.5463C5 71.9709 5 71.6307 5 71.6307L6.03633 68.7317L18.3151 67H24.1893C24.1893 67 33.03 69.3402 33.9435 70.3499C33.9804 70.9585 34 71.3264 34 71.3264Z" fill="black"/>
<path opacity="0.1" d="M26.9853 26.7695C26.8017 27.1558 26.0274 30.4931 25.8437 30.8352C25.6601 31.1773 24.6575 36.6534 24.5657 36.9606C24.4739 37.2678 17.9569 35.676 17.9569 35.676L14.0334 32.5923L10.0007 28.8291C10.0007 28.8291 9.88153 25.4336 12.8521 24.3444L20.2277 32.2968L23.5482 24C24.2043 24.1751 24.8874 24.2443 25.5683 24.2048C25.5683 24.2048 27.169 26.3855 26.9853 26.7695Z" fill="black"/>
<path d="M20.2134 33.1136L12.7818 24.7809C12.3467 24.5103 11.8495 24.3492 11.3349 24.3123C10.8202 24.2753 10.3041 24.3635 9.83306 24.569C8.16938 25.2713 6.1026 25.8403 5.5627 26.1903C5.0228 26.5403 3 28.7068 3 28.7068L9.02443 44.0651L6.37133 54.181C6.37133 54.181 6.77688 59.3496 5.74349 61.2328C5.11427 62.4369 4.81948 63.7806 4.88844 65.1302C4.88844 65.1302 5.20358 67.6276 4.84446 68.9394C4.63462 69.8165 4.6188 70.7271 4.79804 71.6106C4.79804 71.6106 26.1474 72.4867 28.842 71.6106C30.4022 71.0938 32.0149 70.7418 33.6523 70.5607C33.6523 70.5607 33.1637 61.7995 32.6751 59.6972C32.1865 57.595 33.0806 49.5814 33.0806 49.5814L32.4967 40.9963L36 32.1875C36 32.1875 34.1018 26.5403 32.123 25.9713C32.123 25.9713 28.5293 25.138 27.7647 24.7452C27 24.3524 24.7524 24 24.7524 24L23.5725 24.3857L20.2134 33.1136Z" fill="#6C63FF"/>
<path opacity="0.1" d="M30.9804 40.5446L15.6659 39.5033C15.2783 39.4769 14.9427 39.7698 14.9164 40.1573L13.2722 64.3368C13.2459 64.7244 13.5387 65.06 13.9263 65.0863L29.2408 66.1277C29.6283 66.154 29.9639 65.8612 29.9902 65.4736L31.6344 41.2941C31.6608 40.9065 31.3679 40.571 30.9804 40.5446Z" fill="black"/>
<path d="M31.5079 40.0195L16.1935 38.9781C15.8059 38.9518 15.4703 39.2446 15.444 39.6322L13.7998 63.8117C13.7735 64.1993 14.0663 64.5348 14.4539 64.5612L29.7684 65.6025C30.1559 65.6289 30.4915 65.3361 30.5178 64.9485L32.162 40.769C32.1883 40.3814 31.8955 40.0458 31.5079 40.0195Z" fill="#3F3D56"/>
<path d="M31.0025 41.9149L16.4375 40.9246L14.9407 62.9368L29.5057 63.9271L31.0025 41.9149Z" fill="white"/>
<path opacity="0.1" d="M29.6964 47.5333L17.7988 46.7004L17.5667 50.0164L29.4643 50.8492L29.6964 47.5333Z" fill="black"/>
<path opacity="0.1" d="M29.2659 60.7107L27.3778 60.5823L27.2603 62.3104L29.1484 62.4388L29.2659 60.7107Z" fill="black"/>
<path opacity="0.1" d="M27.4035 56.54L17.7389 55.8828L17.6214 57.6109L27.286 58.2681L27.4035 56.54Z" fill="black"/>
<path d="M29.1997 41.0918L19.1365 40.4075L18.9558 43.0641L29.0191 43.7484L29.1997 41.0918Z" fill="#3F3D56"/>
<path opacity="0.1" d="M29.1997 41.0918L19.1365 40.4075L18.9558 43.0641L29.0191 43.7484L29.1997 41.0918Z" fill="black"/>
<path opacity="0.1" d="M22.5706 71C22.5706 71 22.4808 83.705 19 91C19 91 23.1964 81.3861 23.1964 81.0012C23.1964 80.6162 25.5153 76.5803 24.8943 75.3789C24.2734 74.1774 22.5706 71 22.5706 71Z" fill="black"/>
<path opacity="0.1" d="M21.7274 10.7051C21.5918 9.66094 21.8828 8.6084 22.5485 7.73519C22.4694 8.61042 22.7511 9.48148 23.3423 10.1894C23.9336 10.8973 24.7949 11.3948 25.769 11.5911C25.6859 11.5277 25.6265 11.4437 25.5988 11.3502C25.5711 11.2566 25.5763 11.1578 25.6137 11.0669C26.1192 11.5695 26.5063 12.1652 27.0784 12.6071C27.6505 13.049 28.5087 13.3133 29.1819 12.9992C30.0967 12.5659 30.1066 11.4243 29.8699 10.5362C29.3618 8.64469 28.3195 6.89614 26.8392 5.45195C26.4699 5.0154 25.9905 4.65992 25.4386 4.41338C24.8867 4.16683 24.2773 4.03591 23.6582 4.03088C22.2575 3.93557 20.8026 4.04388 19.5475 4.59627C18.8411 4.93486 18.1795 5.34097 17.5747 5.80721L14.1224 8.28108C13.7903 8.49131 13.5059 8.75436 13.284 9.0566C13.1359 9.30928 13.047 9.58552 13.0226 9.86894C12.9344 10.6791 13.1051 11.4949 13.5154 12.2246C13.9257 12.9544 14.5595 13.5692 15.3455 14C15.3289 13.3596 15.5294 12.7294 15.9215 12.1894C16.3136 11.6494 16.8796 11.224 17.5476 10.9672C17.6522 11.0441 17.7369 11.1397 17.7961 11.2477C17.8552 11.3557 17.8873 11.4735 17.8904 11.5933L18.6178 10.4538C18.726 10.2465 18.8965 10.069 19.111 9.94043C19.5598 9.72381 20.1196 9.97943 20.5018 10.2849C20.884 10.5903 21.2564 10.9716 21.7693 11.0192L21.789 9.32305" fill="black"/>
<path d="M21.7212 9.70665C21.5852 8.66157 21.8764 7.60803 22.5428 6.73398C22.3207 8.46732 23.8083 10.257 25.7672 10.5907C25.6839 10.5278 25.6244 10.4442 25.5967 10.3509C25.5689 10.2576 25.5742 10.1591 25.6117 10.0685C26.1175 10.5712 26.5048 11.1648 27.0771 11.609C27.6495 12.0532 28.508 12.3153 29.1815 11.999C30.0968 11.5657 30.1066 10.4238 29.8698 9.53765C29.3616 7.64582 28.3188 5.89694 26.8378 4.45247C26.3783 3.96052 25.7992 3.56518 25.143 3.29547C24.668 3.14116 24.1687 3.052 23.6628 3.03113C22.2615 2.9358 20.806 3.04197 19.5503 3.59447C18.8441 3.93464 18.1823 4.34149 17.5767 4.80781L14.1228 7.28215C13.79 7.49187 13.5054 7.75507 13.2841 8.05782C13.1355 8.31044 13.0466 8.58679 13.0226 8.87032C12.9345 9.68036 13.1053 10.4959 13.5158 11.2254C13.9264 11.9549 14.5603 12.5694 15.3465 13C15.3305 12.3596 15.5313 11.7295 15.9235 11.1895C16.3157 10.6495 16.8816 10.2239 17.5495 9.96666C17.6538 10.0438 17.7383 10.1395 17.7974 10.2474C17.8566 10.3554 17.8889 10.4731 17.8924 10.5928L18.6177 9.45749C18.7253 9.24974 18.8961 9.07207 19.1111 8.94399C19.5601 8.72732 20.1202 8.98299 20.5025 9.28849C20.8849 9.59399 21.2574 9.97315 21.7706 10.023L21.7903 8.32432" fill="#2D3A64"/>
<path d="M24.7611 54.7148C24.1316 54.4014 13.7213 56 13.7213 56C13.7213 56 12.0067 55.5178 7.8622 54.8475C3.7177 54.1771 3.45315 50.189 3.45315 50.189L3 42.2056L4.39865 41L10.3901 44.8579C10.3901 44.8579 10.4831 46.8085 10.3901 47.1606C10.3313 47.4017 10.1745 47.6886 10.1892 47.8839C10.1937 47.9368 10.2159 47.9868 10.2522 48.026C10.2885 48.0652 10.337 48.0916 10.3901 48.101C10.7967 48.2022 16.3374 49.0847 16.3374 49.0847C16.3374 49.0847 29.1799 48.2191 32.3814 52.4773C32.6351 52.7898 32.827 53.1464 32.9472 53.5285C33.7408 56.4388 25.3318 54.9921 24.7611 54.7148Z" fill="#FFB27E"/>
<path opacity="0.1" d="M33 53.6319C32.5092 53.846 32.2048 54 32.2048 54C32.2048 54 27.6008 53.8677 25.0141 52.9487C22.4274 52.0297 19.2835 52.1933 19.2835 52.1933C19.2835 52.1933 8.50475 50.3745 10.176 48C10.1806 48.0528 10.2028 48.1026 10.2392 48.1417C10.2756 48.1809 10.3241 48.2072 10.3773 48.2165C10.7847 48.3176 16.3361 49.1981 16.3361 49.1981C16.3361 49.1981 29.2034 48.3344 32.411 52.583C32.673 52.8931 32.8729 53.249 33 53.6319Z" fill="black"/>
<path d="M37.1991 39C37.1991 39 37.826 43.4276 37.8698 43.7874C37.9135 44.1473 38.1395 48.4825 37.8698 48.976C37.6 49.4696 37.1991 50.272 37.1991 50.272C37.1991 50.272 37.6462 51.2105 35.8576 51.5703C34.0691 51.9302 31.9694 53 31.9694 53C31.9694 53 27.4081 52.8663 24.8613 51.9278C22.3146 50.9892 19.1845 51.1667 19.1845 51.1667C19.1845 51.1667 5.6366 48.8399 11.4495 46C17.2623 43.1601 21.3741 47.0066 21.3741 47.0066L27.8552 46.6054C27.8552 46.6054 30.2708 45.1271 30.9415 45.2633C31.4151 45.3236 31.8961 45.246 32.3267 45.0396L32.3728 40.3421L37.1991 39Z" fill="#FFB27E"/>
<path opacity="0.1" d="M5.64393 29.0656L4.49158 29L1 43.7519C1 43.7519 4.76996 42.717 6.39491 43.7519C8.01985 44.7869 11 45 11 45L9.88865 33.2406L5.64393 29.0656Z" fill="black"/>
<path d="M5.64393 28.0656L4.49158 28L1 42.7519C1 42.7519 4.76996 41.717 6.39491 42.7519C8.01985 43.7869 11 44 11 44L9.88865 32.2406L5.64393 28.0656Z" fill="#6C63FF"/>
<path opacity="0.1" d="M34.9824 32L36.8405 32.4113C36.8405 32.4113 41.5855 39.1009 41.9571 39.475C42.3287 39.8492 40.1875 41.2094 39.3052 41.2094C38.423 41.2094 34.0976 41.7049 32.8412 42.8496C31.5848 43.9943 32.1081 38.2338 32.1081 38.1024C32.1081 37.9711 33.6678 34.3364 33.6678 34.3364L34.9824 32Z" fill="black"/>
<path d="M34.9824 32L36.8405 32.3716C36.8405 32.3716 41.5855 38.4644 41.9571 38.7955C42.3287 39.1266 40.1875 40.3722 39.3052 40.3722C38.423 40.3722 34.0976 40.8227 32.8412 41.8633C31.5848 42.9039 32.1081 37.667 32.1081 37.5477C32.1081 37.4283 33.678 34.1128 33.678 34.1128L34.9824 32Z" fill="#6C63FF"/>
<g opacity="0.1">
<path opacity="0.1" d="M22.6783 6.93991C22.6679 6.75645 22.6719 6.57248 22.6902 6.38965C22.326 6.93624 22.0754 7.55051 21.9534 8.19593V8.75098C21.9534 8.75098 21.9534 8.73902 21.9534 8.73184V8.86342C21.9534 9.251 21.9534 9.64096 21.9414 10.0285H21.9079V10.208C21.9079 10.1458 21.9079 10.086 21.8959 10.0238C21.4175 9.9472 21.0753 9.54527 20.7189 9.22468C20.3624 8.9041 19.805 8.59787 19.3695 8.84429C19.1609 8.98572 18.9954 9.1819 18.891 9.41129L18.1805 10.6649C18.1774 10.533 18.1461 10.4033 18.0887 10.2845C18.0314 10.1656 17.9493 10.0604 17.8479 9.9759C17.1999 10.2594 16.6507 10.7293 16.2703 11.3257C15.8899 11.9221 15.6954 12.6181 15.7115 13.3253C15.0578 12.9157 14.511 12.3565 14.1162 11.6938C13.7214 11.0311 13.49 10.284 13.4411 9.51417C13.3995 10.3738 13.588 11.2289 13.9871 11.9913C14.3862 12.7538 14.9814 13.396 15.7115 13.8517C15.696 13.1446 15.8908 12.4488 16.2711 11.8525C16.6514 11.2562 17.2002 10.7863 17.8479 10.5022C17.9491 10.5874 18.031 10.6931 18.0884 10.8123C18.1457 10.9315 18.1771 11.0614 18.1805 11.1937L18.8839 9.94002C18.9882 9.71063 19.1538 9.51444 19.3624 9.37301C19.7978 9.13377 20.3409 9.41608 20.7117 9.75341C21.0825 10.0907 21.4438 10.5094 21.9414 10.5644C21.9414 9.95198 21.9478 9.34112 21.9605 8.73184C22.0779 8.09265 22.3219 7.48339 22.6783 6.93991Z" fill="black"/>
<path opacity="0.1" d="M21.8696 9.34925C21.8816 9.18656 21.9007 9.02388 21.9247 8.87076L21.951 8.21045C21.879 8.58551 21.8517 8.96777 21.8696 9.34925Z" fill="black"/>
<path opacity="0.1" d="M29.1283 12.2032C28.4751 12.5525 27.6426 12.2606 27.0875 11.7726C26.5325 11.2845 26.1569 10.6266 25.6664 10.0715C25.6301 10.172 25.6251 10.281 25.652 10.3844C25.6789 10.4877 25.7365 10.5805 25.8171 10.6505C25.7693 10.6505 25.7238 10.6266 25.6784 10.6146C26.1569 11.1649 26.5373 11.8108 27.0875 12.2893C27.6378 12.7678 28.4751 13.0693 29.1283 12.72C29.7814 12.3707 29.968 11.5525 29.9106 10.7558C29.8675 11.3826 29.6426 11.9257 29.1283 12.2032Z" fill="black"/>
<path opacity="0.1" d="M25.6639 10.6098C24.8639 10.3918 24.1496 9.93443 23.6168 9.29901C23.084 8.66359 22.7582 7.8805 22.683 7.05469C22.5466 8.93275 23.9629 10.8156 25.8171 11.1769C25.7381 11.1083 25.6813 11.0177 25.6541 10.9167C25.6268 10.8157 25.6302 10.7089 25.6639 10.6098Z" fill="black"/>
</g>
<defs>
<linearGradient id="paint0_linear_166_202" x1="20.9989" y1="137.999" x2="20.9989" y2="0.0114159" gradientUnits="userSpaceOnUse">
<stop stop-color="#808080" stop-opacity="0.25"/>
<stop offset="0.54" stop-color="#808080" stop-opacity="0.12"/>
<stop offset="1" stop-color="#808080" stop-opacity="0.1"/>
</linearGradient>
</defs>
</svg>
