<svg width="30" height="30" viewBox="0 0 30 30" fill="none" xmlns="http://www.w3.org/2000/svg">
<g clip-path="url(#clip0_139_529)">
<path fill-rule="evenodd" clip-rule="evenodd" d="M3.53479 0.957393C3.86287 0.62981 4.25682 0.37569 4.69053 0.211874C5.12425 0.048059 5.58783 -0.0217116 6.05055 0.00718625C6.51327 0.0360841 6.96457 0.162991 7.37453 0.379496C7.7845 0.596001 8.14377 0.897161 8.42854 1.26302L11.7942 5.58677C12.411 6.37989 12.6285 7.41302 12.3848 8.38802L11.3592 12.4943C11.3061 12.7069 11.309 12.9297 11.3675 13.141C11.426 13.3522 11.5381 13.5448 11.6929 13.6999L16.2998 18.3068C16.4551 18.4619 16.648 18.5742 16.8596 18.6327C17.0712 18.6912 17.2943 18.6939 17.5073 18.6405L21.6117 17.6149C22.0928 17.4946 22.595 17.4852 23.0803 17.5876C23.5656 17.6899 24.0213 17.9012 24.4129 18.2055L28.7367 21.5693C30.291 22.7786 30.4335 25.0755 29.0423 26.4649L27.1035 28.4036C25.716 29.7911 23.6423 30.4005 21.7092 29.7199C16.7614 27.979 12.269 25.1465 8.56541 21.4324C4.85158 17.7293 2.01905 13.2376 0.277914 8.29052C-0.400836 6.35927 0.208539 4.28364 1.59604 2.89614L3.53479 0.957393Z" fill="white"/>
</g>
<defs>
<clipPath id="clip0_139_529">
<rect width="30" height="30" fill="white"/>
</clipPath>
</defs>
</svg>
