<svg width="30" height="30" viewBox="0 0 30 30" fill="none" xmlns="http://www.w3.org/2000/svg">
<g clip-path="url(#clip0_136_519)">
<path fill-rule="evenodd" clip-rule="evenodd" d="M3.53416 0.958522C3.86224 0.630939 4.25619 0.376819 4.6899 0.213004C5.12362 0.0491881 5.5872 -0.0205825 6.04992 0.0083154C6.51264 0.0372133 6.96394 0.16412 7.3739 0.380625C7.78387 0.59713 8.14314 0.89829 8.42791 1.26415L11.7935 5.5879C12.4104 6.38102 12.6279 7.41415 12.3842 8.38915L11.3585 12.4954C11.3055 12.7081 11.3084 12.9309 11.3668 13.1421C11.4253 13.3533 11.5374 13.5459 11.6923 13.701L16.2992 18.3079C16.4545 18.4631 16.6473 18.5753 16.8589 18.6338C17.0706 18.6923 17.2937 18.695 17.5067 18.6416L21.611 17.616C22.0922 17.4957 22.5944 17.4864 23.0797 17.5887C23.565 17.691 24.0207 17.9023 24.4123 18.2066L28.736 21.5704C30.2904 22.7798 30.4329 25.0766 29.0417 26.466L27.1029 28.4048C25.7154 29.7923 23.6417 30.4016 21.7085 29.721C16.7608 27.9801 12.2684 25.1476 8.56478 21.4335C4.85095 17.7304 2.01842 13.2388 0.277284 8.29165C-0.401466 6.3604 0.207909 4.28477 1.59541 2.89727L3.53416 0.958522Z" fill="#5C5387"/>
</g>
<defs>
<clipPath id="clip0_136_519">
<rect width="30" height="30" fill="white"/>
</clipPath>
</defs>
</svg>
