<svg width="13" height="21" viewBox="0 0 13 21" fill="none" xmlns="http://www.w3.org/2000/svg">
<path fill-rule="evenodd" clip-rule="evenodd" d="M1.3 5.24964C1.30009 4.23928 1.58893 3.25042 2.13186 2.4017C2.67479 1.55297 3.44874 0.880447 4.36085 0.464814C5.27297 0.0491816 6.28449 -0.0919013 7.27404 0.0584942C8.2636 0.20889 9.18916 0.644375 9.93966 1.3127C10.6902 1.98102 11.2337 2.85378 11.5051 3.82627C11.7765 4.79875 11.7642 5.82965 11.4697 6.79525C11.1752 7.76086 10.611 8.62016 9.84475 9.27004C9.07853 9.91992 8.14286 10.3328 7.15 10.4591V17.7187C7.15 17.8927 7.08152 18.0597 6.95962 18.1827C6.83772 18.3058 6.67239 18.3749 6.5 18.3749C6.32761 18.3749 6.16228 18.3058 6.04038 18.1827C5.91848 18.0597 5.85 17.8927 5.85 17.7187V10.4604C4.59285 10.3005 3.43679 9.68262 2.59898 8.7229C1.76116 7.76317 1.29925 6.52762 1.3 5.24832V5.24964ZM4.5409 16.5033C4.56909 16.6749 4.52865 16.8508 4.42846 16.9923C4.32828 17.1338 4.17654 17.2294 4.0066 17.258C3.081 17.4129 2.3426 17.6452 1.8551 17.9051C1.67602 17.992 1.51326 18.1097 1.3741 18.2529C1.34264 18.2875 1.31755 18.3275 1.3 18.371V18.3749L1.3026 18.3854C1.30772 18.4007 1.3147 18.4152 1.3234 18.4288C1.37471 18.5047 1.43845 18.5713 1.5119 18.6256C1.7264 18.7963 2.0774 18.98 2.5688 19.1441C3.5451 19.4722 4.9348 19.6875 6.5 19.6875C8.0652 19.6875 9.4549 19.4735 10.4312 19.1441C10.9226 18.9787 11.2736 18.7963 11.4881 18.6256C11.562 18.5714 11.6262 18.5048 11.6779 18.4288C11.6861 18.4152 11.6927 18.4006 11.6974 18.3854L11.7 18.3749V18.3697C11.6825 18.3262 11.6574 18.2862 11.6259 18.2516C11.4867 18.1088 11.3239 17.9916 11.1449 17.9051C10.6561 17.6452 9.919 17.4129 8.9934 17.258C8.90718 17.2462 8.82418 17.217 8.74933 17.1722C8.67447 17.1275 8.60929 17.068 8.55763 16.9973C8.50598 16.9266 8.4689 16.8461 8.44861 16.7607C8.42831 16.6753 8.42521 16.5866 8.43949 16.5C8.45376 16.4133 8.48513 16.3304 8.53171 16.2562C8.5783 16.1821 8.63917 16.1181 8.71071 16.0681C8.78225 16.0181 8.863 15.9831 8.94818 15.9652C9.03337 15.9473 9.12124 15.9468 9.2066 15.9638C10.2076 16.1305 11.0942 16.3943 11.7507 16.7435C12.35 17.0624 13 17.5874 13 18.3749C13 18.9341 12.662 19.362 12.2928 19.6573C11.9158 19.9565 11.4088 20.1994 10.842 20.3897C9.7006 20.7742 8.1653 21 6.5 21C4.8347 21 3.2994 20.7742 2.158 20.3897C1.5912 20.1994 1.0842 19.9565 0.7072 19.6573C0.338 19.362 0 18.9341 0 18.3749C0 17.5887 0.65 17.0624 1.2493 16.7435C1.9058 16.3943 2.7924 16.1305 3.7934 15.9638C3.96337 15.9354 4.13757 15.9762 4.27774 16.0773C4.4179 16.1785 4.51255 16.3317 4.5409 16.5033Z" fill="#4A407A"/>
</svg>
